<?xml version="1.0" encoding="utf-8" standalone="no"?>
<!DOCTYPE svg PUBLIC "-//W3C//DTD SVG 1.1//EN"
  "http://www.w3.org/Graphics/SVG/1.1/DTD/svg11.dtd">
<svg xmlns:xlink="http://www.w3.org/1999/xlink" width="1160.39952pt" height="512.39952pt" viewBox="0 0 1160.39952 512.39952" xmlns="http://www.w3.org/2000/svg" version="1.1">
 <metadata>
  <rdf:RDF xmlns:dc="http://purl.org/dc/elements/1.1/" xmlns:cc="http://creativecommons.org/ns#" xmlns:rdf="http://www.w3.org/1999/02/22-rdf-syntax-ns#">
   <cc:Work>
    <dc:type rdf:resource="http://purl.org/dc/dcmitype/StillImage"/>
    <dc:date>2026-05-07T12:59:36.374025</dc:date>
    <dc:format>image/svg+xml</dc:format>
    <dc:creator>
     <cc:Agent>
      <dc:title>Matplotlib v3.9.2, https://matplotlib.org/</dc:title>
     </cc:Agent>
    </dc:creator>
   </cc:Work>
  </rdf:RDF>
 </metadata>
 <defs>
  <style type="text/css">*{stroke-linejoin: round; stroke-linecap: butt}</style>
 </defs>
 <g id="figure_1">
  <g id="patch_1">
   <path d="M 0 512.39952 
L 1160.39952 512.39952 
L 1160.39952 0 
L 0 0 
z
" style="fill: #ffffff"/>
  </g>
  <g id="axes_1">
   <g id="patch_2">
    <path d="M 50.3475 484.58452 
L 574.521791 484.58452 
L 574.521791 66.034324 
L 50.3475 66.034324 
z
" style="fill: #ffffff"/>
   </g>
   <g id="matplotlib.axis_1">
    <g id="xtick_1">
     <g id="text_1">
      <!-- cov_ts_lr -->
      <g style="fill: #262626" transform="translate(113.702382 502.673895) scale(0.12 -0.12)">
       <defs>
        <path id="ArialMT-63" d="M 2588 1216 
L 3141 1144 
Q 3050 572 2676 248 
Q 2303 -75 1759 -75 
Q 1078 -75 664 370 
Q 250 816 250 1647 
Q 250 2184 428 2587 
Q 606 2991 970 3192 
Q 1334 3394 1763 3394 
Q 2303 3394 2647 3120 
Q 2991 2847 3088 2344 
L 2541 2259 
Q 2463 2594 2264 2762 
Q 2066 2931 1784 2931 
Q 1359 2931 1093 2626 
Q 828 2322 828 1663 
Q 828 994 1084 691 
Q 1341 388 1753 388 
Q 2084 388 2306 591 
Q 2528 794 2588 1216 
z
" transform="scale(0.015625)"/>
        <path id="ArialMT-6f" d="M 213 1659 
Q 213 2581 725 3025 
Q 1153 3394 1769 3394 
Q 2453 3394 2887 2945 
Q 3322 2497 3322 1706 
Q 3322 1066 3130 698 
Q 2938 331 2570 128 
Q 2203 -75 1769 -75 
Q 1072 -75 642 372 
Q 213 819 213 1659 
z
M 791 1659 
Q 791 1022 1069 705 
Q 1347 388 1769 388 
Q 2188 388 2466 706 
Q 2744 1025 2744 1678 
Q 2744 2294 2464 2611 
Q 2184 2928 1769 2928 
Q 1347 2928 1069 2612 
Q 791 2297 791 1659 
z
" transform="scale(0.015625)"/>
        <path id="ArialMT-76" d="M 1344 0 
L 81 3319 
L 675 3319 
L 1388 1331 
Q 1503 1009 1600 663 
Q 1675 925 1809 1294 
L 2547 3319 
L 3125 3319 
L 1869 0 
L 1344 0 
z
" transform="scale(0.015625)"/>
        <path id="ArialMT-5f" d="M -97 -1272 
L -97 -866 
L 3631 -866 
L 3631 -1272 
L -97 -1272 
z
" transform="scale(0.015625)"/>
        <path id="ArialMT-74" d="M 1650 503 
L 1731 6 
Q 1494 -44 1306 -44 
Q 1000 -44 831 53 
Q 663 150 594 308 
Q 525 466 525 972 
L 525 2881 
L 113 2881 
L 113 3319 
L 525 3319 
L 525 4141 
L 1084 4478 
L 1084 3319 
L 1650 3319 
L 1650 2881 
L 1084 2881 
L 1084 941 
Q 1084 700 1114 631 
Q 1144 563 1211 522 
Q 1278 481 1403 481 
Q 1497 481 1650 503 
z
" transform="scale(0.015625)"/>
        <path id="ArialMT-73" d="M 197 991 
L 753 1078 
Q 800 744 1014 566 
Q 1228 388 1613 388 
Q 2000 388 2187 545 
Q 2375 703 2375 916 
Q 2375 1106 2209 1216 
Q 2094 1291 1634 1406 
Q 1016 1563 777 1677 
Q 538 1791 414 1992 
Q 291 2194 291 2438 
Q 291 2659 392 2848 
Q 494 3038 669 3163 
Q 800 3259 1026 3326 
Q 1253 3394 1513 3394 
Q 1903 3394 2198 3281 
Q 2494 3169 2634 2976 
Q 2775 2784 2828 2463 
L 2278 2388 
Q 2241 2644 2061 2787 
Q 1881 2931 1553 2931 
Q 1166 2931 1000 2803 
Q 834 2675 834 2503 
Q 834 2394 903 2306 
Q 972 2216 1119 2156 
Q 1203 2125 1616 2013 
Q 2213 1853 2448 1751 
Q 2684 1650 2818 1456 
Q 2953 1263 2953 975 
Q 2953 694 2789 445 
Q 2625 197 2315 61 
Q 2006 -75 1616 -75 
Q 969 -75 630 194 
Q 291 463 197 991 
z
" transform="scale(0.015625)"/>
        <path id="ArialMT-6c" d="M 409 0 
L 409 4581 
L 972 4581 
L 972 0 
L 409 0 
z
" transform="scale(0.015625)"/>
        <path id="ArialMT-72" d="M 416 0 
L 416 3319 
L 922 3319 
L 922 2816 
Q 1116 3169 1280 3281 
Q 1444 3394 1641 3394 
Q 1925 3394 2219 3213 
L 2025 2691 
Q 1819 2813 1613 2813 
Q 1428 2813 1281 2702 
Q 1134 2591 1072 2394 
Q 978 2094 978 1738 
L 978 0 
L 416 0 
z
" transform="scale(0.015625)"/>
       </defs>
       <use xlink:href="#ArialMT-63"/>
       <use xlink:href="#ArialMT-6f" x="50"/>
       <use xlink:href="#ArialMT-76" x="105.615234"/>
       <use xlink:href="#ArialMT-5f" x="155.615234"/>
       <use xlink:href="#ArialMT-74" x="211.230469"/>
       <use xlink:href="#ArialMT-73" x="239.013672"/>
       <use xlink:href="#ArialMT-5f" x="289.013672"/>
       <use xlink:href="#ArialMT-6c" x="344.628906"/>
       <use xlink:href="#ArialMT-72" x="366.845703"/>
      </g>
     </g>
    </g>
    <g id="xtick_2">
     <g id="text_2">
      <!-- aug_ts_lr -->
      <g style="fill: #262626" transform="translate(287.754021 502.673895) scale(0.12 -0.12)">
       <defs>
        <path id="ArialMT-61" d="M 2588 409 
Q 2275 144 1986 34 
Q 1697 -75 1366 -75 
Q 819 -75 525 192 
Q 231 459 231 875 
Q 231 1119 342 1320 
Q 453 1522 633 1644 
Q 813 1766 1038 1828 
Q 1203 1872 1538 1913 
Q 2219 1994 2541 2106 
Q 2544 2222 2544 2253 
Q 2544 2597 2384 2738 
Q 2169 2928 1744 2928 
Q 1347 2928 1158 2789 
Q 969 2650 878 2297 
L 328 2372 
Q 403 2725 575 2942 
Q 747 3159 1072 3276 
Q 1397 3394 1825 3394 
Q 2250 3394 2515 3294 
Q 2781 3194 2906 3042 
Q 3031 2891 3081 2659 
Q 3109 2516 3109 2141 
L 3109 1391 
Q 3109 606 3145 398 
Q 3181 191 3288 0 
L 2700 0 
Q 2613 175 2588 409 
z
M 2541 1666 
Q 2234 1541 1622 1453 
Q 1275 1403 1131 1340 
Q 988 1278 909 1158 
Q 831 1038 831 891 
Q 831 666 1001 516 
Q 1172 366 1500 366 
Q 1825 366 2078 508 
Q 2331 650 2450 897 
Q 2541 1088 2541 1459 
L 2541 1666 
z
" transform="scale(0.015625)"/>
        <path id="ArialMT-75" d="M 2597 0 
L 2597 488 
Q 2209 -75 1544 -75 
Q 1250 -75 995 37 
Q 741 150 617 320 
Q 494 491 444 738 
Q 409 903 409 1263 
L 409 3319 
L 972 3319 
L 972 1478 
Q 972 1038 1006 884 
Q 1059 663 1231 536 
Q 1403 409 1656 409 
Q 1909 409 2131 539 
Q 2353 669 2445 892 
Q 2538 1116 2538 1541 
L 2538 3319 
L 3100 3319 
L 3100 0 
L 2597 0 
z
" transform="scale(0.015625)"/>
        <path id="ArialMT-67" d="M 319 -275 
L 866 -356 
Q 900 -609 1056 -725 
Q 1266 -881 1628 -881 
Q 2019 -881 2231 -725 
Q 2444 -569 2519 -288 
Q 2563 -116 2559 434 
Q 2191 0 1641 0 
Q 956 0 581 494 
Q 206 988 206 1678 
Q 206 2153 378 2554 
Q 550 2956 876 3175 
Q 1203 3394 1644 3394 
Q 2231 3394 2613 2919 
L 2613 3319 
L 3131 3319 
L 3131 450 
Q 3131 -325 2973 -648 
Q 2816 -972 2473 -1159 
Q 2131 -1347 1631 -1347 
Q 1038 -1347 672 -1080 
Q 306 -813 319 -275 
z
M 784 1719 
Q 784 1066 1043 766 
Q 1303 466 1694 466 
Q 2081 466 2343 764 
Q 2606 1063 2606 1700 
Q 2606 2309 2336 2618 
Q 2066 2928 1684 2928 
Q 1309 2928 1046 2623 
Q 784 2319 784 1719 
z
" transform="scale(0.015625)"/>
       </defs>
       <use xlink:href="#ArialMT-61"/>
       <use xlink:href="#ArialMT-75" x="55.615234"/>
       <use xlink:href="#ArialMT-67" x="111.230469"/>
       <use xlink:href="#ArialMT-5f" x="166.845703"/>
       <use xlink:href="#ArialMT-74" x="222.460938"/>
       <use xlink:href="#ArialMT-73" x="250.244141"/>
       <use xlink:href="#ArialMT-5f" x="300.244141"/>
       <use xlink:href="#ArialMT-6c" x="355.859375"/>
       <use xlink:href="#ArialMT-72" x="378.076172"/>
      </g>
     </g>
    </g>
    <g id="xtick_3">
     <g id="text_3">
      <!-- csp_lda -->
      <g style="fill: #262626" transform="translate(466.480034 502.673895) scale(0.12 -0.12)">
       <defs>
        <path id="ArialMT-70" d="M 422 -1272 
L 422 3319 
L 934 3319 
L 934 2888 
Q 1116 3141 1344 3267 
Q 1572 3394 1897 3394 
Q 2322 3394 2647 3175 
Q 2972 2956 3137 2557 
Q 3303 2159 3303 1684 
Q 3303 1175 3120 767 
Q 2938 359 2589 142 
Q 2241 -75 1856 -75 
Q 1575 -75 1351 44 
Q 1128 163 984 344 
L 984 -1272 
L 422 -1272 
z
M 931 1641 
Q 931 1000 1190 694 
Q 1450 388 1819 388 
Q 2194 388 2461 705 
Q 2728 1022 2728 1688 
Q 2728 2322 2467 2637 
Q 2206 2953 1844 2953 
Q 1484 2953 1207 2617 
Q 931 2281 931 1641 
z
" transform="scale(0.015625)"/>
        <path id="ArialMT-64" d="M 2575 0 
L 2575 419 
Q 2259 -75 1647 -75 
Q 1250 -75 917 144 
Q 584 363 401 755 
Q 219 1147 219 1656 
Q 219 2153 384 2558 
Q 550 2963 881 3178 
Q 1213 3394 1622 3394 
Q 1922 3394 2156 3267 
Q 2391 3141 2538 2938 
L 2538 4581 
L 3097 4581 
L 3097 0 
L 2575 0 
z
M 797 1656 
Q 797 1019 1065 703 
Q 1334 388 1700 388 
Q 2069 388 2326 689 
Q 2584 991 2584 1609 
Q 2584 2291 2321 2609 
Q 2059 2928 1675 2928 
Q 1300 2928 1048 2622 
Q 797 2316 797 1656 
z
" transform="scale(0.015625)"/>
       </defs>
       <use xlink:href="#ArialMT-63"/>
       <use xlink:href="#ArialMT-73" x="50"/>
       <use xlink:href="#ArialMT-70" x="100"/>
       <use xlink:href="#ArialMT-5f" x="155.615234"/>
       <use xlink:href="#ArialMT-6c" x="211.230469"/>
       <use xlink:href="#ArialMT-64" x="233.447266"/>
       <use xlink:href="#ArialMT-61" x="289.0625"/>
      </g>
     </g>
    </g>
   </g>
   <g id="matplotlib.axis_2">
    <g id="ytick_1">
     <g id="line2d_1">
      <path d="M 50.3475 484.58452 
L 574.521791 484.58452 
" clip-path="url(#pcce3d38b56)" style="fill: none; stroke: #cccccc; stroke-opacity: 0.3; stroke-width: 0.6; stroke-linecap: round"/>
     </g>
     <g id="text_4">
      <!-- 0.4 -->
      <g style="fill: #262626" transform="translate(24.1675 488.879207) scale(0.12 -0.12)">
       <defs>
        <path id="ArialMT-30" d="M 266 2259 
Q 266 3072 433 3567 
Q 600 4063 929 4331 
Q 1259 4600 1759 4600 
Q 2128 4600 2406 4451 
Q 2684 4303 2865 4023 
Q 3047 3744 3150 3342 
Q 3253 2941 3253 2259 
Q 3253 1453 3087 958 
Q 2922 463 2592 192 
Q 2263 -78 1759 -78 
Q 1097 -78 719 397 
Q 266 969 266 2259 
z
M 844 2259 
Q 844 1131 1108 757 
Q 1372 384 1759 384 
Q 2147 384 2411 759 
Q 2675 1134 2675 2259 
Q 2675 3391 2411 3762 
Q 2147 4134 1753 4134 
Q 1366 4134 1134 3806 
Q 844 3388 844 2259 
z
" transform="scale(0.015625)"/>
        <path id="ArialMT-2e" d="M 581 0 
L 581 641 
L 1222 641 
L 1222 0 
L 581 0 
z
" transform="scale(0.015625)"/>
        <path id="ArialMT-34" d="M 2069 0 
L 2069 1097 
L 81 1097 
L 81 1613 
L 2172 4581 
L 2631 4581 
L 2631 1613 
L 3250 1613 
L 3250 1097 
L 2631 1097 
L 2631 0 
L 2069 0 
z
M 2069 1613 
L 2069 3678 
L 634 1613 
L 2069 1613 
z
" transform="scale(0.015625)"/>
       </defs>
       <use xlink:href="#ArialMT-30"/>
       <use xlink:href="#ArialMT-2e" x="55.615234"/>
       <use xlink:href="#ArialMT-34" x="83.398438"/>
      </g>
     </g>
    </g>
    <g id="ytick_2">
     <g id="line2d_2">
      <path d="M 50.3475 420.192182 
L 574.521791 420.192182 
" clip-path="url(#pcce3d38b56)" style="fill: none; stroke: #cccccc; stroke-opacity: 0.3; stroke-width: 0.6; stroke-linecap: round"/>
     </g>
     <g id="text_5">
      <!-- 0.5 -->
      <g style="fill: #262626" transform="translate(24.1675 424.48687) scale(0.12 -0.12)">
       <defs>
        <path id="ArialMT-35" d="M 266 1200 
L 856 1250 
Q 922 819 1161 601 
Q 1400 384 1738 384 
Q 2144 384 2425 690 
Q 2706 997 2706 1503 
Q 2706 1984 2436 2262 
Q 2166 2541 1728 2541 
Q 1456 2541 1237 2417 
Q 1019 2294 894 2097 
L 366 2166 
L 809 4519 
L 3088 4519 
L 3088 3981 
L 1259 3981 
L 1013 2750 
Q 1425 3038 1878 3038 
Q 2478 3038 2890 2622 
Q 3303 2206 3303 1553 
Q 3303 931 2941 478 
Q 2500 -78 1738 -78 
Q 1113 -78 717 272 
Q 322 622 266 1200 
z
" transform="scale(0.015625)"/>
       </defs>
       <use xlink:href="#ArialMT-30"/>
       <use xlink:href="#ArialMT-2e" x="55.615234"/>
       <use xlink:href="#ArialMT-35" x="83.398438"/>
      </g>
     </g>
    </g>
    <g id="ytick_3">
     <g id="line2d_3">
      <path d="M 50.3475 355.799844 
L 574.521791 355.799844 
" clip-path="url(#pcce3d38b56)" style="fill: none; stroke: #cccccc; stroke-opacity: 0.3; stroke-width: 0.6; stroke-linecap: round"/>
     </g>
     <g id="text_6">
      <!-- 0.6 -->
      <g style="fill: #262626" transform="translate(24.1675 360.094532) scale(0.12 -0.12)">
       <defs>
        <path id="ArialMT-36" d="M 3184 3459 
L 2625 3416 
Q 2550 3747 2413 3897 
Q 2184 4138 1850 4138 
Q 1581 4138 1378 3988 
Q 1113 3794 959 3422 
Q 806 3050 800 2363 
Q 1003 2672 1297 2822 
Q 1591 2972 1913 2972 
Q 2475 2972 2870 2558 
Q 3266 2144 3266 1488 
Q 3266 1056 3080 686 
Q 2894 316 2569 119 
Q 2244 -78 1831 -78 
Q 1128 -78 684 439 
Q 241 956 241 2144 
Q 241 3472 731 4075 
Q 1159 4600 1884 4600 
Q 2425 4600 2770 4297 
Q 3116 3994 3184 3459 
z
M 888 1484 
Q 888 1194 1011 928 
Q 1134 663 1356 523 
Q 1578 384 1822 384 
Q 2178 384 2434 671 
Q 2691 959 2691 1453 
Q 2691 1928 2437 2201 
Q 2184 2475 1800 2475 
Q 1419 2475 1153 2201 
Q 888 1928 888 1484 
z
" transform="scale(0.015625)"/>
       </defs>
       <use xlink:href="#ArialMT-30"/>
       <use xlink:href="#ArialMT-2e" x="55.615234"/>
       <use xlink:href="#ArialMT-36" x="83.398438"/>
      </g>
     </g>
    </g>
    <g id="ytick_4">
     <g id="line2d_4">
      <path d="M 50.3475 291.407506 
L 574.521791 291.407506 
" clip-path="url(#pcce3d38b56)" style="fill: none; stroke: #cccccc; stroke-opacity: 0.3; stroke-width: 0.6; stroke-linecap: round"/>
     </g>
     <g id="text_7">
      <!-- 0.7 -->
      <g style="fill: #262626" transform="translate(24.1675 295.702194) scale(0.12 -0.12)">
       <defs>
        <path id="ArialMT-37" d="M 303 3981 
L 303 4522 
L 3269 4522 
L 3269 4084 
Q 2831 3619 2401 2847 
Q 1972 2075 1738 1259 
Q 1569 684 1522 0 
L 944 0 
Q 953 541 1156 1306 
Q 1359 2072 1739 2783 
Q 2119 3494 2547 3981 
L 303 3981 
z
" transform="scale(0.015625)"/>
       </defs>
       <use xlink:href="#ArialMT-30"/>
       <use xlink:href="#ArialMT-2e" x="55.615234"/>
       <use xlink:href="#ArialMT-37" x="83.398438"/>
      </g>
     </g>
    </g>
    <g id="ytick_5">
     <g id="line2d_5">
      <path d="M 50.3475 227.015168 
L 574.521791 227.015168 
" clip-path="url(#pcce3d38b56)" style="fill: none; stroke: #cccccc; stroke-opacity: 0.3; stroke-width: 0.6; stroke-linecap: round"/>
     </g>
     <g id="text_8">
      <!-- 0.8 -->
      <g style="fill: #262626" transform="translate(24.1675 231.309856) scale(0.12 -0.12)">
       <defs>
        <path id="ArialMT-38" d="M 1131 2484 
Q 781 2613 612 2850 
Q 444 3088 444 3419 
Q 444 3919 803 4259 
Q 1163 4600 1759 4600 
Q 2359 4600 2725 4251 
Q 3091 3903 3091 3403 
Q 3091 3084 2923 2848 
Q 2756 2613 2416 2484 
Q 2838 2347 3058 2040 
Q 3278 1734 3278 1309 
Q 3278 722 2862 322 
Q 2447 -78 1769 -78 
Q 1091 -78 675 323 
Q 259 725 259 1325 
Q 259 1772 486 2073 
Q 713 2375 1131 2484 
z
M 1019 3438 
Q 1019 3113 1228 2906 
Q 1438 2700 1772 2700 
Q 2097 2700 2305 2904 
Q 2513 3109 2513 3406 
Q 2513 3716 2298 3927 
Q 2084 4138 1766 4138 
Q 1444 4138 1231 3931 
Q 1019 3725 1019 3438 
z
M 838 1322 
Q 838 1081 952 856 
Q 1066 631 1291 507 
Q 1516 384 1775 384 
Q 2178 384 2440 643 
Q 2703 903 2703 1303 
Q 2703 1709 2433 1975 
Q 2163 2241 1756 2241 
Q 1359 2241 1098 1978 
Q 838 1716 838 1322 
z
" transform="scale(0.015625)"/>
       </defs>
       <use xlink:href="#ArialMT-30"/>
       <use xlink:href="#ArialMT-2e" x="55.615234"/>
       <use xlink:href="#ArialMT-38" x="83.398438"/>
      </g>
     </g>
    </g>
    <g id="ytick_6">
     <g id="line2d_6">
      <path d="M 50.3475 162.622831 
L 574.521791 162.622831 
" clip-path="url(#pcce3d38b56)" style="fill: none; stroke: #cccccc; stroke-opacity: 0.3; stroke-width: 0.6; stroke-linecap: round"/>
     </g>
     <g id="text_9">
      <!-- 0.9 -->
      <g style="fill: #262626" transform="translate(24.1675 166.917518) scale(0.12 -0.12)">
       <defs>
        <path id="ArialMT-39" d="M 350 1059 
L 891 1109 
Q 959 728 1153 556 
Q 1347 384 1650 384 
Q 1909 384 2104 503 
Q 2300 622 2425 820 
Q 2550 1019 2634 1356 
Q 2719 1694 2719 2044 
Q 2719 2081 2716 2156 
Q 2547 1888 2255 1720 
Q 1963 1553 1622 1553 
Q 1053 1553 659 1965 
Q 266 2378 266 3053 
Q 266 3750 677 4175 
Q 1088 4600 1706 4600 
Q 2153 4600 2523 4359 
Q 2894 4119 3086 3673 
Q 3278 3228 3278 2384 
Q 3278 1506 3087 986 
Q 2897 466 2520 194 
Q 2144 -78 1638 -78 
Q 1100 -78 759 220 
Q 419 519 350 1059 
z
M 2653 3081 
Q 2653 3566 2395 3850 
Q 2138 4134 1775 4134 
Q 1400 4134 1122 3828 
Q 844 3522 844 3034 
Q 844 2597 1108 2323 
Q 1372 2050 1759 2050 
Q 2150 2050 2401 2323 
Q 2653 2597 2653 3081 
z
" transform="scale(0.015625)"/>
       </defs>
       <use xlink:href="#ArialMT-30"/>
       <use xlink:href="#ArialMT-2e" x="55.615234"/>
       <use xlink:href="#ArialMT-39" x="83.398438"/>
      </g>
     </g>
    </g>
    <g id="ytick_7">
     <g id="line2d_7">
      <path d="M 50.3475 98.230493 
L 574.521791 98.230493 
" clip-path="url(#pcce3d38b56)" style="fill: none; stroke: #cccccc; stroke-opacity: 0.3; stroke-width: 0.6; stroke-linecap: round"/>
     </g>
     <g id="text_10">
      <!-- 1.0 -->
      <g style="fill: #262626" transform="translate(24.1675 102.52518) scale(0.12 -0.12)">
       <defs>
        <path id="ArialMT-31" d="M 2384 0 
L 1822 0 
L 1822 3584 
Q 1619 3391 1289 3197 
Q 959 3003 697 2906 
L 697 3450 
Q 1169 3672 1522 3987 
Q 1875 4303 2022 4600 
L 2384 4600 
L 2384 0 
z
" transform="scale(0.015625)"/>
       </defs>
       <use xlink:href="#ArialMT-31"/>
       <use xlink:href="#ArialMT-2e" x="55.615234"/>
       <use xlink:href="#ArialMT-30" x="83.398438"/>
      </g>
     </g>
    </g>
    <g id="text_11">
     <!-- Accuracy -->
     <g style="fill: #262626" transform="translate(17.220938 304.094734) rotate(-90) scale(0.14 -0.14)">
      <defs>
       <path id="ArialMT-41" d="M -9 0 
L 1750 4581 
L 2403 4581 
L 4278 0 
L 3588 0 
L 3053 1388 
L 1138 1388 
L 634 0 
L -9 0 
z
M 1313 1881 
L 2866 1881 
L 2388 3150 
Q 2169 3728 2063 4100 
Q 1975 3659 1816 3225 
L 1313 1881 
z
" transform="scale(0.015625)"/>
       <path id="ArialMT-79" d="M 397 -1278 
L 334 -750 
Q 519 -800 656 -800 
Q 844 -800 956 -737 
Q 1069 -675 1141 -563 
Q 1194 -478 1313 -144 
Q 1328 -97 1363 -6 
L 103 3319 
L 709 3319 
L 1400 1397 
Q 1534 1031 1641 628 
Q 1738 1016 1872 1384 
L 2581 3319 
L 3144 3319 
L 1881 -56 
Q 1678 -603 1566 -809 
Q 1416 -1088 1222 -1217 
Q 1028 -1347 759 -1347 
Q 597 -1347 397 -1278 
z
" transform="scale(0.015625)"/>
      </defs>
      <use xlink:href="#ArialMT-41"/>
      <use xlink:href="#ArialMT-63" x="66.699219"/>
      <use xlink:href="#ArialMT-63" x="116.699219"/>
      <use xlink:href="#ArialMT-75" x="166.699219"/>
      <use xlink:href="#ArialMT-72" x="222.314453"/>
      <use xlink:href="#ArialMT-61" x="255.615234"/>
      <use xlink:href="#ArialMT-63" x="311.230469"/>
      <use xlink:href="#ArialMT-79" x="361.230469"/>
     </g>
    </g>
   </g>
   <g id="patch_3">
    <path d="M 102.764929 297.289686 
L 172.654835 297.289686 
L 172.654835 198.578141 
L 102.764929 198.578141 
L 102.764929 297.289686 
z
" clip-path="url(#pcce3d38b56)" style="fill: #72b6a1; stroke: #595959; stroke-linejoin: miter"/>
   </g>
   <g id="line2d_8">
    <path d="M 137.709882 297.289686 
L 137.709882 379.834976 
" clip-path="url(#pcce3d38b56)" style="fill: none; stroke: #595959"/>
   </g>
   <g id="line2d_9">
    <path d="M 137.709882 198.578141 
L 137.709882 134.029984 
" clip-path="url(#pcce3d38b56)" style="fill: none; stroke: #595959"/>
   </g>
   <g id="line2d_10">
    <path d="M 120.237406 379.834976 
L 155.182358 379.834976 
" clip-path="url(#pcce3d38b56)" style="fill: none; stroke: #595959; stroke-linecap: round"/>
   </g>
   <g id="line2d_11">
    <path d="M 120.237406 134.029984 
L 155.182358 134.029984 
" clip-path="url(#pcce3d38b56)" style="fill: none; stroke: #595959; stroke-linecap: round"/>
   </g>
   <g id="line2d_12"/>
   <g id="patch_4">
    <path d="M 277.489693 272.942916 
L 347.379598 272.942916 
L 347.379598 178.711176 
L 277.489693 178.711176 
L 277.489693 272.942916 
z
" clip-path="url(#pcce3d38b56)" style="fill: #e99675; stroke: #595959; stroke-linejoin: miter"/>
   </g>
   <g id="line2d_13">
    <path d="M 312.434646 272.942916 
L 312.434646 335.114828 
" clip-path="url(#pcce3d38b56)" style="fill: none; stroke: #595959"/>
   </g>
   <g id="line2d_14">
    <path d="M 312.434646 178.711176 
L 312.434646 122.849947 
" clip-path="url(#pcce3d38b56)" style="fill: none; stroke: #595959"/>
   </g>
   <g id="line2d_15">
    <path d="M 294.962169 335.114828 
L 329.907122 335.114828 
" clip-path="url(#pcce3d38b56)" style="fill: none; stroke: #595959; stroke-linecap: round"/>
   </g>
   <g id="line2d_16">
    <path d="M 294.962169 122.849947 
L 329.907122 122.849947 
" clip-path="url(#pcce3d38b56)" style="fill: none; stroke: #595959; stroke-linecap: round"/>
   </g>
   <g id="line2d_17"/>
   <g id="patch_5">
    <path d="M 452.214457 292.926745 
L 522.104362 292.926745 
L 522.104362 180.814737 
L 452.214457 180.814737 
L 452.214457 292.926745 
z
" clip-path="url(#pcce3d38b56)" style="fill: #95a3c3; stroke: #595959; stroke-linejoin: miter"/>
   </g>
   <g id="line2d_18">
    <path d="M 487.159409 292.926745 
L 487.159409 409.284829 
" clip-path="url(#pcce3d38b56)" style="fill: none; stroke: #595959"/>
   </g>
   <g id="line2d_19">
    <path d="M 487.159409 180.814737 
L 487.159409 122.810992 
" clip-path="url(#pcce3d38b56)" style="fill: none; stroke: #595959"/>
   </g>
   <g id="line2d_20">
    <path d="M 469.686933 409.284829 
L 504.631886 409.284829 
" clip-path="url(#pcce3d38b56)" style="fill: none; stroke: #595959; stroke-linecap: round"/>
   </g>
   <g id="line2d_21">
    <path d="M 469.686933 122.810992 
L 504.631886 122.810992 
" clip-path="url(#pcce3d38b56)" style="fill: none; stroke: #595959; stroke-linecap: round"/>
   </g>
   <g id="line2d_22"/>
   <g id="line2d_23">
    <path d="M 50.3475 420.192182 
L 574.521791 420.192182 
" clip-path="url(#pcce3d38b56)" style="fill: none; stroke-dasharray: 5.55,2.4; stroke-dashoffset: 0; stroke: #ff0000; stroke-opacity: 0.7; stroke-width: 1.5"/>
   </g>
   <g id="line2d_24">
    <path d="M 102.764929 254.751009 
L 172.654835 254.751009 
" clip-path="url(#pcce3d38b56)" style="fill: none; stroke: #595959"/>
   </g>
   <g id="line2d_25">
    <path d="M 277.489693 239.208031 
L 347.379598 239.208031 
" clip-path="url(#pcce3d38b56)" style="fill: none; stroke: #595959"/>
   </g>
   <g id="line2d_26">
    <path d="M 452.214457 272.475458 
L 522.104362 272.475458 
" clip-path="url(#pcce3d38b56)" style="fill: none; stroke: #595959"/>
   </g>
   <g id="patch_6">
    <path d="M 50.3475 484.58452 
L 50.3475 66.034324 
" style="fill: none; stroke: #cccccc; stroke-width: 1.25; stroke-linejoin: miter; stroke-linecap: square"/>
   </g>
   <g id="patch_7">
    <path d="M 574.521791 484.58452 
L 574.521791 66.034324 
" style="fill: none; stroke: #cccccc; stroke-width: 1.25; stroke-linejoin: miter; stroke-linecap: square"/>
   </g>
   <g id="patch_8">
    <path d="M 50.3475 484.58452 
L 574.521791 484.58452 
" style="fill: none; stroke: #cccccc; stroke-width: 1.25; stroke-linejoin: miter; stroke-linecap: square"/>
   </g>
   <g id="patch_9">
    <path d="M 50.3475 66.034324 
L 574.521791 66.034324 
" style="fill: none; stroke: #cccccc; stroke-width: 1.25; stroke-linejoin: miter; stroke-linecap: square"/>
   </g>
   <g id="PathCollection_1">
    <defs>
     <path id="m0f30f44de6" d="M 0 3 
C 0.795609 3 1.55874 2.683901 2.12132 2.12132 
C 2.683901 1.55874 3 0.795609 3 0 
C 3 -0.795609 2.683901 -1.55874 2.12132 -2.12132 
C 1.55874 -2.683901 0.795609 -3 0 -3 
C -0.795609 -3 -1.55874 -2.683901 -2.12132 -2.12132 
C -2.683901 -1.55874 -3 -0.795609 -3 0 
C -3 0.795609 -2.683901 1.55874 -2.12132 2.12132 
C -1.55874 2.683901 -0.795609 3 0 3 
z
"/>
    </defs>
    <g clip-path="url(#pcce3d38b56)">
     <use xlink:href="#m0f30f44de6" x="144.11513" y="198.578141" style="fill-opacity: 0.5"/>
     <use xlink:href="#m0f30f44de6" x="135.819455" y="359.617418" style="fill-opacity: 0.5"/>
     <use xlink:href="#m0f30f44de6" x="129.799276" y="134.029984" style="fill-opacity: 0.5"/>
     <use xlink:href="#m0f30f44de6" x="155.081874" y="254.751009" style="fill-opacity: 0.5"/>
     <use xlink:href="#m0f30f44de6" x="135.130291" y="379.834976" style="fill-opacity: 0.5"/>
     <use xlink:href="#m0f30f44de6" x="136.011104" y="297.289686" style="fill-opacity: 0.5"/>
     <use xlink:href="#m0f30f44de6" x="125.955232" y="272.670232" style="fill-opacity: 0.5"/>
     <use xlink:href="#m0f30f44de6" x="148.011988" y="138.392925" style="fill-opacity: 0.5"/>
     <use xlink:href="#m0f30f44de6" x="144.478098" y="218.873608" style="fill-opacity: 0.5"/>
    </g>
   </g>
   <g id="PathCollection_2">
    <g clip-path="url(#pcce3d38b56)">
     <use xlink:href="#m0f30f44de6" x="302.676953" y="178.711176" style="fill-opacity: 0.5"/>
     <use xlink:href="#m0f30f44de6" x="297.840971" y="328.492507" style="fill-opacity: 0.5"/>
     <use xlink:href="#m0f30f44de6" x="318.742185" y="131.770603" style="fill-opacity: 0.5"/>
     <use xlink:href="#m0f30f44de6" x="317.834033" y="268.112517" style="fill-opacity: 0.5"/>
     <use xlink:href="#m0f30f44de6" x="304.511211" y="335.114828" style="fill-opacity: 0.5"/>
     <use xlink:href="#m0f30f44de6" x="328.190052" y="272.942916" style="fill-opacity: 0.5"/>
     <use xlink:href="#m0f30f44de6" x="300.24088" y="239.208031" style="fill-opacity: 0.5"/>
     <use xlink:href="#m0f30f44de6" x="310.070088" y="122.849947" style="fill-opacity: 0.5"/>
     <use xlink:href="#m0f30f44de6" x="327.936783" y="200.99334" style="fill-opacity: 0.5"/>
    </g>
   </g>
   <g id="PathCollection_3">
    <g clip-path="url(#pcce3d38b56)">
     <use xlink:href="#m0f30f44de6" x="484.354284" y="180.814737" style="fill-opacity: 0.5"/>
     <use xlink:href="#m0f30f44de6" x="492.000192" y="388.677723" style="fill-opacity: 0.5"/>
     <use xlink:href="#m0f30f44de6" x="483.58085" y="122.810992" style="fill-opacity: 0.5"/>
     <use xlink:href="#m0f30f44de6" x="479.26937" y="272.475458" style="fill-opacity: 0.5"/>
     <use xlink:href="#m0f30f44de6" x="504.071985" y="409.284829" style="fill-opacity: 0.5"/>
     <use xlink:href="#m0f30f44de6" x="483.991091" y="292.926745" style="fill-opacity: 0.5"/>
     <use xlink:href="#m0f30f44de6" x="500.931187" y="286.148604" style="fill-opacity: 0.5"/>
     <use xlink:href="#m0f30f44de6" x="477.722686" y="136.09459" style="fill-opacity: 0.5"/>
     <use xlink:href="#m0f30f44de6" x="477.133867" y="225.612794" style="fill-opacity: 0.5"/>
    </g>
   </g>
   <g id="text_12">
    <!-- Mean Accuracy (higher = better) -->
    <g style="fill: #262626" transform="translate(205.513943 60.034324) scale(0.15 -0.15)">
     <defs>
      <path id="ArialMT-4d" d="M 475 0 
L 475 4581 
L 1388 4581 
L 2472 1338 
Q 2622 884 2691 659 
Q 2769 909 2934 1394 
L 4031 4581 
L 4847 4581 
L 4847 0 
L 4263 0 
L 4263 3834 
L 2931 0 
L 2384 0 
L 1059 3900 
L 1059 0 
L 475 0 
z
" transform="scale(0.015625)"/>
      <path id="ArialMT-65" d="M 2694 1069 
L 3275 997 
Q 3138 488 2766 206 
Q 2394 -75 1816 -75 
Q 1088 -75 661 373 
Q 234 822 234 1631 
Q 234 2469 665 2931 
Q 1097 3394 1784 3394 
Q 2450 3394 2872 2941 
Q 3294 2488 3294 1666 
Q 3294 1616 3291 1516 
L 816 1516 
Q 847 969 1125 678 
Q 1403 388 1819 388 
Q 2128 388 2347 550 
Q 2566 713 2694 1069 
z
M 847 1978 
L 2700 1978 
Q 2663 2397 2488 2606 
Q 2219 2931 1791 2931 
Q 1403 2931 1139 2672 
Q 875 2413 847 1978 
z
" transform="scale(0.015625)"/>
      <path id="ArialMT-6e" d="M 422 0 
L 422 3319 
L 928 3319 
L 928 2847 
Q 1294 3394 1984 3394 
Q 2284 3394 2536 3286 
Q 2788 3178 2913 3003 
Q 3038 2828 3088 2588 
Q 3119 2431 3119 2041 
L 3119 0 
L 2556 0 
L 2556 2019 
Q 2556 2363 2490 2533 
Q 2425 2703 2258 2804 
Q 2091 2906 1866 2906 
Q 1506 2906 1245 2678 
Q 984 2450 984 1813 
L 984 0 
L 422 0 
z
" transform="scale(0.015625)"/>
      <path id="ArialMT-20" transform="scale(0.015625)"/>
      <path id="ArialMT-28" d="M 1497 -1347 
Q 1031 -759 709 28 
Q 388 816 388 1659 
Q 388 2403 628 3084 
Q 909 3875 1497 4659 
L 1900 4659 
Q 1522 4009 1400 3731 
Q 1209 3300 1100 2831 
Q 966 2247 966 1656 
Q 966 153 1900 -1347 
L 1497 -1347 
z
" transform="scale(0.015625)"/>
      <path id="ArialMT-68" d="M 422 0 
L 422 4581 
L 984 4581 
L 984 2938 
Q 1378 3394 1978 3394 
Q 2347 3394 2619 3248 
Q 2891 3103 3008 2847 
Q 3125 2591 3125 2103 
L 3125 0 
L 2563 0 
L 2563 2103 
Q 2563 2525 2380 2717 
Q 2197 2909 1863 2909 
Q 1613 2909 1392 2779 
Q 1172 2650 1078 2428 
Q 984 2206 984 1816 
L 984 0 
L 422 0 
z
" transform="scale(0.015625)"/>
      <path id="ArialMT-69" d="M 425 3934 
L 425 4581 
L 988 4581 
L 988 3934 
L 425 3934 
z
M 425 0 
L 425 3319 
L 988 3319 
L 988 0 
L 425 0 
z
" transform="scale(0.015625)"/>
      <path id="ArialMT-3d" d="M 3381 2694 
L 356 2694 
L 356 3219 
L 3381 3219 
L 3381 2694 
z
M 3381 1303 
L 356 1303 
L 356 1828 
L 3381 1828 
L 3381 1303 
z
" transform="scale(0.015625)"/>
      <path id="ArialMT-62" d="M 941 0 
L 419 0 
L 419 4581 
L 981 4581 
L 981 2947 
Q 1338 3394 1891 3394 
Q 2197 3394 2470 3270 
Q 2744 3147 2920 2923 
Q 3097 2700 3197 2384 
Q 3297 2069 3297 1709 
Q 3297 856 2875 390 
Q 2453 -75 1863 -75 
Q 1275 -75 941 416 
L 941 0 
z
M 934 1684 
Q 934 1088 1097 822 
Q 1363 388 1816 388 
Q 2184 388 2453 708 
Q 2722 1028 2722 1663 
Q 2722 2313 2464 2622 
Q 2206 2931 1841 2931 
Q 1472 2931 1203 2611 
Q 934 2291 934 1684 
z
" transform="scale(0.015625)"/>
      <path id="ArialMT-29" d="M 791 -1347 
L 388 -1347 
Q 1322 153 1322 1656 
Q 1322 2244 1188 2822 
Q 1081 3291 891 3722 
Q 769 4003 388 4659 
L 791 4659 
Q 1378 3875 1659 3084 
Q 1900 2403 1900 1659 
Q 1900 816 1576 28 
Q 1253 -759 791 -1347 
z
" transform="scale(0.015625)"/>
     </defs>
     <use xlink:href="#ArialMT-4d"/>
     <use xlink:href="#ArialMT-65" x="83.300781"/>
     <use xlink:href="#ArialMT-61" x="138.916016"/>
     <use xlink:href="#ArialMT-6e" x="194.53125"/>
     <use xlink:href="#ArialMT-20" x="250.146484"/>
     <use xlink:href="#ArialMT-41" x="272.429688"/>
     <use xlink:href="#ArialMT-63" x="339.128906"/>
     <use xlink:href="#ArialMT-63" x="389.128906"/>
     <use xlink:href="#ArialMT-75" x="439.128906"/>
     <use xlink:href="#ArialMT-72" x="494.744141"/>
     <use xlink:href="#ArialMT-61" x="528.044922"/>
     <use xlink:href="#ArialMT-63" x="583.660156"/>
     <use xlink:href="#ArialMT-79" x="633.660156"/>
     <use xlink:href="#ArialMT-20" x="683.660156"/>
     <use xlink:href="#ArialMT-28" x="711.443359"/>
     <use xlink:href="#ArialMT-68" x="744.744141"/>
     <use xlink:href="#ArialMT-69" x="800.359375"/>
     <use xlink:href="#ArialMT-67" x="822.576172"/>
     <use xlink:href="#ArialMT-68" x="878.191406"/>
     <use xlink:href="#ArialMT-65" x="933.806641"/>
     <use xlink:href="#ArialMT-72" x="989.421875"/>
     <use xlink:href="#ArialMT-20" x="1022.722656"/>
     <use xlink:href="#ArialMT-3d" x="1050.505859"/>
     <use xlink:href="#ArialMT-20" x="1108.904297"/>
     <use xlink:href="#ArialMT-62" x="1136.6875"/>
     <use xlink:href="#ArialMT-65" x="1192.302734"/>
     <use xlink:href="#ArialMT-74" x="1247.917969"/>
     <use xlink:href="#ArialMT-74" x="1275.701172"/>
     <use xlink:href="#ArialMT-65" x="1303.484375"/>
     <use xlink:href="#ArialMT-72" x="1359.099609"/>
     <use xlink:href="#ArialMT-29" x="1392.400391"/>
    </g>
   </g>
   <g id="legend_1">
    <g id="patch_10">
     <path d="M 490.046947 479.08452 
L 566.821791 479.08452 
Q 569.021791 479.08452 569.021791 476.88452 
L 569.021791 462.424676 
Q 569.021791 460.224676 566.821791 460.224676 
L 490.046947 460.224676 
Q 487.846947 460.224676 487.846947 462.424676 
L 487.846947 476.88452 
Q 487.846947 479.08452 490.046947 479.08452 
z
" style="fill: #ffffff; opacity: 0.8; stroke: #cccccc; stroke-linejoin: miter"/>
    </g>
    <g id="line2d_27">
     <path d="M 492.246947 468.64827 
L 503.246947 468.64827 
L 514.246948 468.64827 
" style="fill: none; stroke-dasharray: 5.55,2.4; stroke-dashoffset: 0; stroke: #ff0000; stroke-opacity: 0.7; stroke-width: 1.5"/>
    </g>
    <g id="text_13">
     <!-- Random -->
     <g style="fill: #262626" transform="translate(523.046947 472.49827) scale(0.11 -0.11)">
      <defs>
       <path id="ArialMT-52" d="M 503 0 
L 503 4581 
L 2534 4581 
Q 3147 4581 3465 4457 
Q 3784 4334 3975 4021 
Q 4166 3709 4166 3331 
Q 4166 2844 3850 2509 
Q 3534 2175 2875 2084 
Q 3116 1969 3241 1856 
Q 3506 1613 3744 1247 
L 4541 0 
L 3778 0 
L 3172 953 
Q 2906 1366 2734 1584 
Q 2563 1803 2427 1890 
Q 2291 1978 2150 2013 
Q 2047 2034 1813 2034 
L 1109 2034 
L 1109 0 
L 503 0 
z
M 1109 2559 
L 2413 2559 
Q 2828 2559 3062 2645 
Q 3297 2731 3419 2920 
Q 3541 3109 3541 3331 
Q 3541 3656 3305 3865 
Q 3069 4075 2559 4075 
L 1109 4075 
L 1109 2559 
z
" transform="scale(0.015625)"/>
       <path id="ArialMT-6d" d="M 422 0 
L 422 3319 
L 925 3319 
L 925 2853 
Q 1081 3097 1340 3245 
Q 1600 3394 1931 3394 
Q 2300 3394 2536 3241 
Q 2772 3088 2869 2813 
Q 3263 3394 3894 3394 
Q 4388 3394 4653 3120 
Q 4919 2847 4919 2278 
L 4919 0 
L 4359 0 
L 4359 2091 
Q 4359 2428 4304 2576 
Q 4250 2725 4106 2815 
Q 3963 2906 3769 2906 
Q 3419 2906 3187 2673 
Q 2956 2441 2956 1928 
L 2956 0 
L 2394 0 
L 2394 2156 
Q 2394 2531 2256 2718 
Q 2119 2906 1806 2906 
Q 1569 2906 1367 2781 
Q 1166 2656 1075 2415 
Q 984 2175 984 1722 
L 984 0 
L 422 0 
z
" transform="scale(0.015625)"/>
      </defs>
      <use xlink:href="#ArialMT-52"/>
      <use xlink:href="#ArialMT-61" x="72.216797"/>
      <use xlink:href="#ArialMT-6e" x="127.832031"/>
      <use xlink:href="#ArialMT-64" x="183.447266"/>
      <use xlink:href="#ArialMT-6f" x="239.0625"/>
      <use xlink:href="#ArialMT-6d" x="294.677734"/>
     </g>
    </g>
   </g>
  </g>
  <g id="axes_2">
   <g id="patch_11">
    <path d="M 629.025229 484.58452 
L 1153.19952 484.58452 
L 1153.19952 66.034324 
L 629.025229 66.034324 
z
" style="fill: #ffffff"/>
   </g>
   <g id="matplotlib.axis_3">
    <g id="xtick_4">
     <g id="text_14">
      <!-- cov_ts_lr -->
      <g style="fill: #262626" transform="translate(692.380111 502.673895) scale(0.12 -0.12)">
       <use xlink:href="#ArialMT-63"/>
       <use xlink:href="#ArialMT-6f" x="50"/>
       <use xlink:href="#ArialMT-76" x="105.615234"/>
       <use xlink:href="#ArialMT-5f" x="155.615234"/>
       <use xlink:href="#ArialMT-74" x="211.230469"/>
       <use xlink:href="#ArialMT-73" x="239.013672"/>
       <use xlink:href="#ArialMT-5f" x="289.013672"/>
       <use xlink:href="#ArialMT-6c" x="344.628906"/>
       <use xlink:href="#ArialMT-72" x="366.845703"/>
      </g>
     </g>
    </g>
    <g id="xtick_5">
     <g id="text_15">
      <!-- aug_ts_lr -->
      <g style="fill: #262626" transform="translate(866.431749 502.673895) scale(0.12 -0.12)">
       <use xlink:href="#ArialMT-61"/>
       <use xlink:href="#ArialMT-75" x="55.615234"/>
       <use xlink:href="#ArialMT-67" x="111.230469"/>
       <use xlink:href="#ArialMT-5f" x="166.845703"/>
       <use xlink:href="#ArialMT-74" x="222.460938"/>
       <use xlink:href="#ArialMT-73" x="250.244141"/>
       <use xlink:href="#ArialMT-5f" x="300.244141"/>
       <use xlink:href="#ArialMT-6c" x="355.859375"/>
       <use xlink:href="#ArialMT-72" x="378.076172"/>
      </g>
     </g>
    </g>
    <g id="xtick_6">
     <g id="text_16">
      <!-- csp_lda -->
      <g style="fill: #262626" transform="translate(1045.157763 502.673895) scale(0.12 -0.12)">
       <use xlink:href="#ArialMT-63"/>
       <use xlink:href="#ArialMT-73" x="50"/>
       <use xlink:href="#ArialMT-70" x="100"/>
       <use xlink:href="#ArialMT-5f" x="155.615234"/>
       <use xlink:href="#ArialMT-6c" x="211.230469"/>
       <use xlink:href="#ArialMT-64" x="233.447266"/>
       <use xlink:href="#ArialMT-61" x="289.0625"/>
      </g>
     </g>
    </g>
   </g>
   <g id="matplotlib.axis_4">
    <g id="ytick_8">
     <g id="line2d_28">
      <path d="M 629.025229 484.58452 
L 1153.19952 484.58452 
" clip-path="url(#pdb3c9730da)" style="fill: none; stroke: #cccccc; stroke-opacity: 0.3; stroke-width: 0.6; stroke-linecap: round"/>
     </g>
     <g id="text_17">
      <!-- 0.4 -->
      <g style="fill: #262626" transform="translate(602.845229 488.879207) scale(0.12 -0.12)">
       <use xlink:href="#ArialMT-30"/>
       <use xlink:href="#ArialMT-2e" x="55.615234"/>
       <use xlink:href="#ArialMT-34" x="83.398438"/>
      </g>
     </g>
    </g>
    <g id="ytick_9">
     <g id="line2d_29">
      <path d="M 629.025229 420.192182 
L 1153.19952 420.192182 
" clip-path="url(#pdb3c9730da)" style="fill: none; stroke: #cccccc; stroke-opacity: 0.3; stroke-width: 0.6; stroke-linecap: round"/>
     </g>
     <g id="text_18">
      <!-- 0.5 -->
      <g style="fill: #262626" transform="translate(602.845229 424.48687) scale(0.12 -0.12)">
       <use xlink:href="#ArialMT-30"/>
       <use xlink:href="#ArialMT-2e" x="55.615234"/>
       <use xlink:href="#ArialMT-35" x="83.398438"/>
      </g>
     </g>
    </g>
    <g id="ytick_10">
     <g id="line2d_30">
      <path d="M 629.025229 355.799844 
L 1153.19952 355.799844 
" clip-path="url(#pdb3c9730da)" style="fill: none; stroke: #cccccc; stroke-opacity: 0.3; stroke-width: 0.6; stroke-linecap: round"/>
     </g>
     <g id="text_19">
      <!-- 0.6 -->
      <g style="fill: #262626" transform="translate(602.845229 360.094532) scale(0.12 -0.12)">
       <use xlink:href="#ArialMT-30"/>
       <use xlink:href="#ArialMT-2e" x="55.615234"/>
       <use xlink:href="#ArialMT-36" x="83.398438"/>
      </g>
     </g>
    </g>
    <g id="ytick_11">
     <g id="line2d_31">
      <path d="M 629.025229 291.407506 
L 1153.19952 291.407506 
" clip-path="url(#pdb3c9730da)" style="fill: none; stroke: #cccccc; stroke-opacity: 0.3; stroke-width: 0.6; stroke-linecap: round"/>
     </g>
     <g id="text_20">
      <!-- 0.7 -->
      <g style="fill: #262626" transform="translate(602.845229 295.702194) scale(0.12 -0.12)">
       <use xlink:href="#ArialMT-30"/>
       <use xlink:href="#ArialMT-2e" x="55.615234"/>
       <use xlink:href="#ArialMT-37" x="83.398438"/>
      </g>
     </g>
    </g>
    <g id="ytick_12">
     <g id="line2d_32">
      <path d="M 629.025229 227.015168 
L 1153.19952 227.015168 
" clip-path="url(#pdb3c9730da)" style="fill: none; stroke: #cccccc; stroke-opacity: 0.3; stroke-width: 0.6; stroke-linecap: round"/>
     </g>
     <g id="text_21">
      <!-- 0.8 -->
      <g style="fill: #262626" transform="translate(602.845229 231.309856) scale(0.12 -0.12)">
       <use xlink:href="#ArialMT-30"/>
       <use xlink:href="#ArialMT-2e" x="55.615234"/>
       <use xlink:href="#ArialMT-38" x="83.398438"/>
      </g>
     </g>
    </g>
    <g id="ytick_13">
     <g id="line2d_33">
      <path d="M 629.025229 162.622831 
L 1153.19952 162.622831 
" clip-path="url(#pdb3c9730da)" style="fill: none; stroke: #cccccc; stroke-opacity: 0.3; stroke-width: 0.6; stroke-linecap: round"/>
     </g>
     <g id="text_22">
      <!-- 0.9 -->
      <g style="fill: #262626" transform="translate(602.845229 166.917518) scale(0.12 -0.12)">
       <use xlink:href="#ArialMT-30"/>
       <use xlink:href="#ArialMT-2e" x="55.615234"/>
       <use xlink:href="#ArialMT-39" x="83.398438"/>
      </g>
     </g>
    </g>
    <g id="ytick_14">
     <g id="line2d_34">
      <path d="M 629.025229 98.230493 
L 1153.19952 98.230493 
" clip-path="url(#pdb3c9730da)" style="fill: none; stroke: #cccccc; stroke-opacity: 0.3; stroke-width: 0.6; stroke-linecap: round"/>
     </g>
     <g id="text_23">
      <!-- 1.0 -->
      <g style="fill: #262626" transform="translate(602.845229 102.52518) scale(0.12 -0.12)">
       <use xlink:href="#ArialMT-31"/>
       <use xlink:href="#ArialMT-2e" x="55.615234"/>
       <use xlink:href="#ArialMT-30" x="83.398438"/>
      </g>
     </g>
    </g>
    <g id="text_24">
     <!-- ROC AUC -->
     <g style="fill: #262626" transform="translate(596.062729 307.204266) rotate(-90) scale(0.14 -0.14)">
      <defs>
       <path id="ArialMT-4f" d="M 309 2231 
Q 309 3372 921 4017 
Q 1534 4663 2503 4663 
Q 3138 4663 3647 4359 
Q 4156 4056 4423 3514 
Q 4691 2972 4691 2284 
Q 4691 1588 4409 1038 
Q 4128 488 3612 205 
Q 3097 -78 2500 -78 
Q 1853 -78 1343 234 
Q 834 547 571 1087 
Q 309 1628 309 2231 
z
M 934 2222 
Q 934 1394 1379 917 
Q 1825 441 2497 441 
Q 3181 441 3623 922 
Q 4066 1403 4066 2288 
Q 4066 2847 3877 3264 
Q 3688 3681 3323 3911 
Q 2959 4141 2506 4141 
Q 1863 4141 1398 3698 
Q 934 3256 934 2222 
z
" transform="scale(0.015625)"/>
       <path id="ArialMT-43" d="M 3763 1606 
L 4369 1453 
Q 4178 706 3683 314 
Q 3188 -78 2472 -78 
Q 1731 -78 1267 223 
Q 803 525 561 1097 
Q 319 1669 319 2325 
Q 319 3041 592 3573 
Q 866 4106 1370 4382 
Q 1875 4659 2481 4659 
Q 3169 4659 3637 4309 
Q 4106 3959 4291 3325 
L 3694 3184 
Q 3534 3684 3231 3912 
Q 2928 4141 2469 4141 
Q 1941 4141 1586 3887 
Q 1231 3634 1087 3207 
Q 944 2781 944 2328 
Q 944 1744 1114 1308 
Q 1284 872 1643 656 
Q 2003 441 2422 441 
Q 2931 441 3284 734 
Q 3638 1028 3763 1606 
z
" transform="scale(0.015625)"/>
       <path id="ArialMT-55" d="M 3500 4581 
L 4106 4581 
L 4106 1934 
Q 4106 1244 3950 837 
Q 3794 431 3386 176 
Q 2978 -78 2316 -78 
Q 1672 -78 1262 144 
Q 853 366 678 786 
Q 503 1206 503 1934 
L 503 4581 
L 1109 4581 
L 1109 1938 
Q 1109 1341 1220 1058 
Q 1331 775 1601 622 
Q 1872 469 2263 469 
Q 2931 469 3215 772 
Q 3500 1075 3500 1938 
L 3500 4581 
z
" transform="scale(0.015625)"/>
      </defs>
      <use xlink:href="#ArialMT-52"/>
      <use xlink:href="#ArialMT-4f" x="72.216797"/>
      <use xlink:href="#ArialMT-43" x="150"/>
      <use xlink:href="#ArialMT-20" x="222.216797"/>
      <use xlink:href="#ArialMT-41" x="244.5"/>
      <use xlink:href="#ArialMT-55" x="311.199219"/>
      <use xlink:href="#ArialMT-43" x="383.416016"/>
     </g>
    </g>
   </g>
   <g id="patch_12">
    <path d="M 681.442658 256.055708 
L 751.332563 256.055708 
L 751.332563 143.88594 
L 681.442658 143.88594 
L 681.442658 256.055708 
z
" clip-path="url(#pdb3c9730da)" style="fill: #72b6a1; stroke: #595959; stroke-linejoin: miter"/>
   </g>
   <g id="line2d_35">
    <path d="M 716.387611 256.055708 
L 716.387611 361.356377 
" clip-path="url(#pdb3c9730da)" style="fill: none; stroke: #595959"/>
   </g>
   <g id="line2d_36">
    <path d="M 716.387611 143.88594 
L 716.387611 104.634725 
" clip-path="url(#pdb3c9730da)" style="fill: none; stroke: #595959"/>
   </g>
   <g id="line2d_37">
    <path d="M 698.915134 361.356377 
L 733.860087 361.356377 
" clip-path="url(#pdb3c9730da)" style="fill: none; stroke: #595959; stroke-linecap: round"/>
   </g>
   <g id="line2d_38">
    <path d="M 698.915134 104.634725 
L 733.860087 104.634725 
" clip-path="url(#pdb3c9730da)" style="fill: none; stroke: #595959; stroke-linecap: round"/>
   </g>
   <g id="line2d_39"/>
   <g id="patch_13">
    <path d="M 856.167422 219.271025 
L 926.057327 219.271025 
L 926.057327 137.837195 
L 856.167422 137.837195 
L 856.167422 219.271025 
z
" clip-path="url(#pdb3c9730da)" style="fill: #e99675; stroke: #595959; stroke-linejoin: miter"/>
   </g>
   <g id="line2d_40">
    <path d="M 891.112374 219.271025 
L 891.112374 309.247476 
" clip-path="url(#pdb3c9730da)" style="fill: none; stroke: #595959"/>
   </g>
   <g id="line2d_41">
    <path d="M 891.112374 137.837195 
L 891.112374 101.654104 
" clip-path="url(#pdb3c9730da)" style="fill: none; stroke: #595959"/>
   </g>
   <g id="line2d_42">
    <path d="M 873.639898 309.247476 
L 908.584851 309.247476 
" clip-path="url(#pdb3c9730da)" style="fill: none; stroke: #595959; stroke-linecap: round"/>
   </g>
   <g id="line2d_43">
    <path d="M 873.639898 101.654104 
L 908.584851 101.654104 
" clip-path="url(#pdb3c9730da)" style="fill: none; stroke: #595959; stroke-linecap: round"/>
   </g>
   <g id="line2d_44"/>
   <g id="patch_14">
    <path d="M 1030.892185 258.74647 
L 1100.782091 258.74647 
L 1100.782091 133.609636 
L 1030.892185 133.609636 
L 1030.892185 258.74647 
z
" clip-path="url(#pdb3c9730da)" style="fill: #95a3c3; stroke: #595959; stroke-linejoin: miter"/>
   </g>
   <g id="line2d_45">
    <path d="M 1065.837138 258.74647 
L 1065.837138 414.083278 
" clip-path="url(#pdb3c9730da)" style="fill: none; stroke: #595959"/>
   </g>
   <g id="line2d_46">
    <path d="M 1065.837138 133.609636 
L 1065.837138 102.425237 
" clip-path="url(#pdb3c9730da)" style="fill: none; stroke: #595959"/>
   </g>
   <g id="line2d_47">
    <path d="M 1048.364662 414.083278 
L 1083.309614 414.083278 
" clip-path="url(#pdb3c9730da)" style="fill: none; stroke: #595959; stroke-linecap: round"/>
   </g>
   <g id="line2d_48">
    <path d="M 1048.364662 102.425237 
L 1083.309614 102.425237 
" clip-path="url(#pdb3c9730da)" style="fill: none; stroke: #595959; stroke-linecap: round"/>
   </g>
   <g id="line2d_49"/>
   <g id="line2d_50">
    <path d="M 629.025229 420.192182 
L 1153.19952 420.192182 
" clip-path="url(#pdb3c9730da)" style="fill: none; stroke-dasharray: 5.55,2.4; stroke-dashoffset: 0; stroke: #ff0000; stroke-opacity: 0.7; stroke-width: 1.5"/>
   </g>
   <g id="line2d_51">
    <path d="M 681.442658 206.090667 
L 751.332563 206.090667 
" clip-path="url(#pdb3c9730da)" style="fill: none; stroke: #595959"/>
   </g>
   <g id="line2d_52">
    <path d="M 856.167422 195.229177 
L 926.057327 195.229177 
" clip-path="url(#pdb3c9730da)" style="fill: none; stroke: #595959"/>
   </g>
   <g id="line2d_53">
    <path d="M 1030.892185 220.731255 
L 1100.782091 220.731255 
" clip-path="url(#pdb3c9730da)" style="fill: none; stroke: #595959"/>
   </g>
   <g id="patch_15">
    <path d="M 629.025229 484.58452 
L 629.025229 66.034324 
" style="fill: none; stroke: #cccccc; stroke-width: 1.25; stroke-linejoin: miter; stroke-linecap: square"/>
   </g>
   <g id="patch_16">
    <path d="M 1153.19952 484.58452 
L 1153.19952 66.034324 
" style="fill: none; stroke: #cccccc; stroke-width: 1.25; stroke-linejoin: miter; stroke-linecap: square"/>
   </g>
   <g id="patch_17">
    <path d="M 629.025229 484.58452 
L 1153.19952 484.58452 
" style="fill: none; stroke: #cccccc; stroke-width: 1.25; stroke-linejoin: miter; stroke-linecap: square"/>
   </g>
   <g id="patch_18">
    <path d="M 629.025229 66.034324 
L 1153.19952 66.034324 
" style="fill: none; stroke: #cccccc; stroke-width: 1.25; stroke-linejoin: miter; stroke-linecap: square"/>
   </g>
   <g id="PathCollection_4">
    <g clip-path="url(#pdb3c9730da)">
     <use xlink:href="#m0f30f44de6" x="700.003113" y="143.88594" style="fill-opacity: 0.5"/>
     <use xlink:href="#m0f30f44de6" x="721.687601" y="348.635417" style="fill-opacity: 0.5"/>
     <use xlink:href="#m0f30f44de6" x="711.79327" y="104.634725" style="fill-opacity: 0.5"/>
     <use xlink:href="#m0f30f44de6" x="729.120092" y="206.090667" style="fill-opacity: 0.5"/>
     <use xlink:href="#m0f30f44de6" x="715.451432" y="361.356377" style="fill-opacity: 0.5"/>
     <use xlink:href="#m0f30f44de6" x="732.748608" y="256.055708" style="fill-opacity: 0.5"/>
     <use xlink:href="#m0f30f44de6" x="705.398315" y="235.218711" style="fill-opacity: 0.5"/>
     <use xlink:href="#m0f30f44de6" x="729.26913" y="107.183292" style="fill-opacity: 0.5"/>
     <use xlink:href="#m0f30f44de6" x="726.053275" y="172.117064" style="fill-opacity: 0.5"/>
    </g>
   </g>
   <g id="PathCollection_5">
    <g clip-path="url(#pdb3c9730da)">
     <use xlink:href="#m0f30f44de6" x="900.579725" y="137.837195" style="fill-opacity: 0.5"/>
     <use xlink:href="#m0f30f44de6" x="903.160808" y="284.702478" style="fill-opacity: 0.5"/>
     <use xlink:href="#m0f30f44de6" x="900.233845" y="103.967503" style="fill-opacity: 0.5"/>
     <use xlink:href="#m0f30f44de6" x="895.523138" y="217.433431" style="fill-opacity: 0.5"/>
     <use xlink:href="#m0f30f44de6" x="878.226244" y="309.247476" style="fill-opacity: 0.5"/>
     <use xlink:href="#m0f30f44de6" x="874.776524" y="219.271025" style="fill-opacity: 0.5"/>
     <use xlink:href="#m0f30f44de6" x="905.818883" y="195.229177" style="fill-opacity: 0.5"/>
     <use xlink:href="#m0f30f44de6" x="895.188714" y="101.654104" style="fill-opacity: 0.5"/>
     <use xlink:href="#m0f30f44de6" x="901.474856" y="157.285059" style="fill-opacity: 0.5"/>
    </g>
   </g>
   <g id="PathCollection_6">
    <g clip-path="url(#pdb3c9730da)">
     <use xlink:href="#m0f30f44de6" x="1065.191438" y="133.609636" style="fill-opacity: 0.5"/>
     <use xlink:href="#m0f30f44de6" x="1052.463991" y="374.192186" style="fill-opacity: 0.5"/>
     <use xlink:href="#m0f30f44de6" x="1052.739273" y="102.425237" style="fill-opacity: 0.5"/>
     <use xlink:href="#m0f30f44de6" x="1072.321708" y="220.731255" style="fill-opacity: 0.5"/>
     <use xlink:href="#m0f30f44de6" x="1063.401681" y="414.083278" style="fill-opacity: 0.5"/>
     <use xlink:href="#m0f30f44de6" x="1055.371989" y="258.74647" style="fill-opacity: 0.5"/>
     <use xlink:href="#m0f30f44de6" x="1065.54341" y="256.859655" style="fill-opacity: 0.5"/>
     <use xlink:href="#m0f30f44de6" x="1050.60844" y="106.428566" style="fill-opacity: 0.5"/>
     <use xlink:href="#m0f30f44de6" x="1068.701625" y="172.095187" style="fill-opacity: 0.5"/>
    </g>
   </g>
   <g id="text_25">
    <!-- Mean ROC AUC (higher = better) -->
    <g style="fill: #262626" transform="translate(780.447531 60.034324) scale(0.15 -0.15)">
     <use xlink:href="#ArialMT-4d"/>
     <use xlink:href="#ArialMT-65" x="83.300781"/>
     <use xlink:href="#ArialMT-61" x="138.916016"/>
     <use xlink:href="#ArialMT-6e" x="194.53125"/>
     <use xlink:href="#ArialMT-20" x="250.146484"/>
     <use xlink:href="#ArialMT-52" x="277.929688"/>
     <use xlink:href="#ArialMT-4f" x="350.146484"/>
     <use xlink:href="#ArialMT-43" x="427.929688"/>
     <use xlink:href="#ArialMT-20" x="500.146484"/>
     <use xlink:href="#ArialMT-41" x="522.429688"/>
     <use xlink:href="#ArialMT-55" x="589.128906"/>
     <use xlink:href="#ArialMT-43" x="661.345703"/>
     <use xlink:href="#ArialMT-20" x="733.5625"/>
     <use xlink:href="#ArialMT-28" x="761.345703"/>
     <use xlink:href="#ArialMT-68" x="794.646484"/>
     <use xlink:href="#ArialMT-69" x="850.261719"/>
     <use xlink:href="#ArialMT-67" x="872.478516"/>
     <use xlink:href="#ArialMT-68" x="928.09375"/>
     <use xlink:href="#ArialMT-65" x="983.708984"/>
     <use xlink:href="#ArialMT-72" x="1039.324219"/>
     <use xlink:href="#ArialMT-20" x="1072.625"/>
     <use xlink:href="#ArialMT-3d" x="1100.408203"/>
     <use xlink:href="#ArialMT-20" x="1158.806641"/>
     <use xlink:href="#ArialMT-62" x="1186.589844"/>
     <use xlink:href="#ArialMT-65" x="1242.205078"/>
     <use xlink:href="#ArialMT-74" x="1297.820312"/>
     <use xlink:href="#ArialMT-74" x="1325.603516"/>
     <use xlink:href="#ArialMT-65" x="1353.386719"/>
     <use xlink:href="#ArialMT-72" x="1409.001953"/>
     <use xlink:href="#ArialMT-29" x="1442.302734"/>
    </g>
   </g>
   <g id="legend_2">
    <g id="patch_19">
     <path d="M 1068.724676 479.08452 
L 1145.49952 479.08452 
Q 1147.69952 479.08452 1147.69952 476.88452 
L 1147.69952 462.424676 
Q 1147.69952 460.224676 1145.49952 460.224676 
L 1068.724676 460.224676 
Q 1066.524676 460.224676 1066.524676 462.424676 
L 1066.524676 476.88452 
Q 1066.524676 479.08452 1068.724676 479.08452 
z
" style="fill: #ffffff; opacity: 0.8; stroke: #cccccc; stroke-linejoin: miter"/>
    </g>
    <g id="line2d_54">
     <path d="M 1070.924676 468.64827 
L 1081.924676 468.64827 
L 1092.924676 468.64827 
" style="fill: none; stroke-dasharray: 5.55,2.4; stroke-dashoffset: 0; stroke: #ff0000; stroke-opacity: 0.7; stroke-width: 1.5"/>
    </g>
    <g id="text_26">
     <!-- Random -->
     <g style="fill: #262626" transform="translate(1101.724676 472.49827) scale(0.11 -0.11)">
      <use xlink:href="#ArialMT-52"/>
      <use xlink:href="#ArialMT-61" x="72.216797"/>
      <use xlink:href="#ArialMT-6e" x="127.832031"/>
      <use xlink:href="#ArialMT-64" x="183.447266"/>
      <use xlink:href="#ArialMT-6f" x="239.0625"/>
      <use xlink:href="#ArialMT-6d" x="294.677734"/>
     </g>
    </g>
   </g>
  </g>
  <g id="text_27">
   <!-- Per subject metrics differences (8-channels, 9 subjects) -->
   <g style="fill: #262626" transform="translate(342.12726 20.303437) scale(0.18 -0.18)">
    <defs>
     <path id="Arial-BoldMT-50" d="M 466 0 
L 466 4581 
L 1950 4581 
Q 2794 4581 3050 4513 
Q 3444 4409 3709 4064 
Q 3975 3719 3975 3172 
Q 3975 2750 3822 2462 
Q 3669 2175 3433 2011 
Q 3197 1847 2953 1794 
Q 2622 1728 1994 1728 
L 1391 1728 
L 1391 0 
L 466 0 
z
M 1391 3806 
L 1391 2506 
L 1897 2506 
Q 2444 2506 2628 2578 
Q 2813 2650 2917 2803 
Q 3022 2956 3022 3159 
Q 3022 3409 2875 3571 
Q 2728 3734 2503 3775 
Q 2338 3806 1838 3806 
L 1391 3806 
z
" transform="scale(0.015625)"/>
     <path id="Arial-BoldMT-65" d="M 2381 1056 
L 3256 909 
Q 3088 428 2723 176 
Q 2359 -75 1813 -75 
Q 947 -75 531 491 
Q 203 944 203 1634 
Q 203 2459 634 2926 
Q 1066 3394 1725 3394 
Q 2466 3394 2894 2905 
Q 3322 2416 3303 1406 
L 1103 1406 
Q 1113 1016 1316 798 
Q 1519 581 1822 581 
Q 2028 581 2168 693 
Q 2309 806 2381 1056 
z
M 2431 1944 
Q 2422 2325 2234 2523 
Q 2047 2722 1778 2722 
Q 1491 2722 1303 2513 
Q 1116 2303 1119 1944 
L 2431 1944 
z
" transform="scale(0.015625)"/>
     <path id="Arial-BoldMT-72" d="M 1300 0 
L 422 0 
L 422 3319 
L 1238 3319 
L 1238 2847 
Q 1447 3181 1614 3287 
Q 1781 3394 1994 3394 
Q 2294 3394 2572 3228 
L 2300 2463 
Q 2078 2606 1888 2606 
Q 1703 2606 1575 2504 
Q 1447 2403 1373 2137 
Q 1300 1872 1300 1025 
L 1300 0 
z
" transform="scale(0.015625)"/>
     <path id="Arial-BoldMT-20" transform="scale(0.015625)"/>
     <path id="Arial-BoldMT-73" d="M 150 947 
L 1031 1081 
Q 1088 825 1259 692 
Q 1431 559 1741 559 
Q 2081 559 2253 684 
Q 2369 772 2369 919 
Q 2369 1019 2306 1084 
Q 2241 1147 2013 1200 
Q 950 1434 666 1628 
Q 272 1897 272 2375 
Q 272 2806 612 3100 
Q 953 3394 1669 3394 
Q 2350 3394 2681 3172 
Q 3013 2950 3138 2516 
L 2309 2363 
Q 2256 2556 2107 2659 
Q 1959 2763 1684 2763 
Q 1338 2763 1188 2666 
Q 1088 2597 1088 2488 
Q 1088 2394 1175 2328 
Q 1294 2241 1995 2081 
Q 2697 1922 2975 1691 
Q 3250 1456 3250 1038 
Q 3250 581 2869 253 
Q 2488 -75 1741 -75 
Q 1063 -75 667 200 
Q 272 475 150 947 
z
" transform="scale(0.015625)"/>
     <path id="Arial-BoldMT-75" d="M 2644 0 
L 2644 497 
Q 2463 231 2167 78 
Q 1872 -75 1544 -75 
Q 1209 -75 943 72 
Q 678 219 559 484 
Q 441 750 441 1219 
L 441 3319 
L 1319 3319 
L 1319 1794 
Q 1319 1094 1367 936 
Q 1416 778 1544 686 
Q 1672 594 1869 594 
Q 2094 594 2272 717 
Q 2450 841 2515 1023 
Q 2581 1206 2581 1919 
L 2581 3319 
L 3459 3319 
L 3459 0 
L 2644 0 
z
" transform="scale(0.015625)"/>
     <path id="Arial-BoldMT-62" d="M 422 0 
L 422 4581 
L 1300 4581 
L 1300 2931 
Q 1706 3394 2263 3394 
Q 2869 3394 3266 2955 
Q 3663 2516 3663 1694 
Q 3663 844 3258 384 
Q 2853 -75 2275 -75 
Q 1991 -75 1714 67 
Q 1438 209 1238 488 
L 1238 0 
L 422 0 
z
M 1294 1731 
Q 1294 1216 1456 969 
Q 1684 619 2063 619 
Q 2353 619 2558 867 
Q 2763 1116 2763 1650 
Q 2763 2219 2556 2470 
Q 2350 2722 2028 2722 
Q 1713 2722 1503 2476 
Q 1294 2231 1294 1731 
z
" transform="scale(0.015625)"/>
     <path id="Arial-BoldMT-6a" d="M 441 3769 
L 441 4581 
L 1319 4581 
L 1319 3769 
L 441 3769 
z
M 1319 3319 
L 1319 103 
Q 1319 -531 1236 -792 
Q 1153 -1053 917 -1200 
Q 681 -1347 316 -1347 
Q 184 -1347 32 -1323 
Q -119 -1300 -294 -1253 
L -141 -503 
Q -78 -516 -23 -523 
Q 31 -531 78 -531 
Q 213 -531 298 -473 
Q 384 -416 412 -334 
Q 441 -253 441 153 
L 441 3319 
L 1319 3319 
z
" transform="scale(0.015625)"/>
     <path id="Arial-BoldMT-63" d="M 3353 2338 
L 2488 2181 
Q 2444 2441 2289 2572 
Q 2134 2703 1888 2703 
Q 1559 2703 1364 2476 
Q 1169 2250 1169 1719 
Q 1169 1128 1367 884 
Q 1566 641 1900 641 
Q 2150 641 2309 783 
Q 2469 925 2534 1272 
L 3397 1125 
Q 3263 531 2881 228 
Q 2500 -75 1859 -75 
Q 1131 -75 698 384 
Q 266 844 266 1656 
Q 266 2478 700 2936 
Q 1134 3394 1875 3394 
Q 2481 3394 2839 3133 
Q 3197 2872 3353 2338 
z
" transform="scale(0.015625)"/>
     <path id="Arial-BoldMT-74" d="M 1981 3319 
L 1981 2619 
L 1381 2619 
L 1381 1281 
Q 1381 875 1398 808 
Q 1416 741 1477 697 
Q 1538 653 1625 653 
Q 1747 653 1978 738 
L 2053 56 
Q 1747 -75 1359 -75 
Q 1122 -75 931 4 
Q 741 84 652 211 
Q 563 338 528 553 
Q 500 706 500 1172 
L 500 2619 
L 97 2619 
L 97 3319 
L 500 3319 
L 500 3978 
L 1381 4491 
L 1381 3319 
L 1981 3319 
z
" transform="scale(0.015625)"/>
     <path id="Arial-BoldMT-6d" d="M 394 3319 
L 1203 3319 
L 1203 2866 
Q 1638 3394 2238 3394 
Q 2556 3394 2790 3262 
Q 3025 3131 3175 2866 
Q 3394 3131 3647 3262 
Q 3900 3394 4188 3394 
Q 4553 3394 4806 3245 
Q 5059 3097 5184 2809 
Q 5275 2597 5275 2122 
L 5275 0 
L 4397 0 
L 4397 1897 
Q 4397 2391 4306 2534 
Q 4184 2722 3931 2722 
Q 3747 2722 3584 2609 
Q 3422 2497 3350 2280 
Q 3278 2063 3278 1594 
L 3278 0 
L 2400 0 
L 2400 1819 
Q 2400 2303 2353 2443 
Q 2306 2584 2207 2653 
Q 2109 2722 1941 2722 
Q 1738 2722 1575 2612 
Q 1413 2503 1342 2297 
Q 1272 2091 1272 1613 
L 1272 0 
L 394 0 
L 394 3319 
z
" transform="scale(0.015625)"/>
     <path id="Arial-BoldMT-69" d="M 459 3769 
L 459 4581 
L 1338 4581 
L 1338 3769 
L 459 3769 
z
M 459 0 
L 459 3319 
L 1338 3319 
L 1338 0 
L 459 0 
z
" transform="scale(0.015625)"/>
     <path id="Arial-BoldMT-64" d="M 3503 0 
L 2688 0 
L 2688 488 
Q 2484 203 2207 64 
Q 1931 -75 1650 -75 
Q 1078 -75 670 386 
Q 263 847 263 1672 
Q 263 2516 659 2955 
Q 1056 3394 1663 3394 
Q 2219 3394 2625 2931 
L 2625 4581 
L 3503 4581 
L 3503 0 
z
M 1159 1731 
Q 1159 1200 1306 963 
Q 1519 619 1900 619 
Q 2203 619 2415 876 
Q 2628 1134 2628 1647 
Q 2628 2219 2422 2470 
Q 2216 2722 1894 2722 
Q 1581 2722 1370 2473 
Q 1159 2225 1159 1731 
z
" transform="scale(0.015625)"/>
     <path id="Arial-BoldMT-66" d="M 75 3319 
L 563 3319 
L 563 3569 
Q 563 3988 652 4194 
Q 741 4400 980 4529 
Q 1219 4659 1584 4659 
Q 1959 4659 2319 4547 
L 2200 3934 
Q 1991 3984 1797 3984 
Q 1606 3984 1523 3895 
Q 1441 3806 1441 3553 
L 1441 3319 
L 2097 3319 
L 2097 2628 
L 1441 2628 
L 1441 0 
L 563 0 
L 563 2628 
L 75 2628 
L 75 3319 
z
" transform="scale(0.015625)"/>
     <path id="Arial-BoldMT-6e" d="M 3478 0 
L 2600 0 
L 2600 1694 
Q 2600 2231 2544 2389 
Q 2488 2547 2361 2634 
Q 2234 2722 2056 2722 
Q 1828 2722 1647 2597 
Q 1466 2472 1398 2265 
Q 1331 2059 1331 1503 
L 1331 0 
L 453 0 
L 453 3319 
L 1269 3319 
L 1269 2831 
Q 1703 3394 2363 3394 
Q 2653 3394 2893 3289 
Q 3134 3184 3257 3021 
Q 3381 2859 3429 2653 
Q 3478 2447 3478 2063 
L 3478 0 
z
" transform="scale(0.015625)"/>
     <path id="Arial-BoldMT-28" d="M 1916 -1347 
L 1313 -1347 
Q 834 -625 584 153 
Q 334 931 334 1659 
Q 334 2563 644 3369 
Q 913 4069 1325 4659 
L 1925 4659 
Q 1497 3713 1336 3048 
Q 1175 2384 1175 1641 
Q 1175 1128 1270 590 
Q 1366 53 1531 -431 
Q 1641 -750 1916 -1347 
z
" transform="scale(0.015625)"/>
     <path id="Arial-BoldMT-38" d="M 1025 2472 
Q 684 2616 529 2867 
Q 375 3119 375 3419 
Q 375 3931 733 4265 
Q 1091 4600 1750 4600 
Q 2403 4600 2764 4265 
Q 3125 3931 3125 3419 
Q 3125 3100 2959 2851 
Q 2794 2603 2494 2472 
Q 2875 2319 3073 2025 
Q 3272 1731 3272 1347 
Q 3272 713 2867 316 
Q 2463 -81 1791 -81 
Q 1166 -81 750 247 
Q 259 634 259 1309 
Q 259 1681 443 1992 
Q 628 2303 1025 2472 
z
M 1206 3356 
Q 1206 3094 1354 2947 
Q 1503 2800 1750 2800 
Q 2000 2800 2150 2948 
Q 2300 3097 2300 3359 
Q 2300 3606 2151 3754 
Q 2003 3903 1759 3903 
Q 1506 3903 1356 3753 
Q 1206 3603 1206 3356 
z
M 1125 1394 
Q 1125 1031 1311 828 
Q 1497 625 1775 625 
Q 2047 625 2225 820 
Q 2403 1016 2403 1384 
Q 2403 1706 2222 1901 
Q 2041 2097 1763 2097 
Q 1441 2097 1283 1875 
Q 1125 1653 1125 1394 
z
" transform="scale(0.015625)"/>
     <path id="Arial-BoldMT-2d" d="M 359 1222 
L 359 2100 
L 2084 2100 
L 2084 1222 
L 359 1222 
z
" transform="scale(0.015625)"/>
     <path id="Arial-BoldMT-68" d="M 1334 4581 
L 1334 2897 
Q 1759 3394 2350 3394 
Q 2653 3394 2897 3281 
Q 3141 3169 3264 2994 
Q 3388 2819 3433 2606 
Q 3478 2394 3478 1947 
L 3478 0 
L 2600 0 
L 2600 1753 
Q 2600 2275 2550 2415 
Q 2500 2556 2373 2639 
Q 2247 2722 2056 2722 
Q 1838 2722 1666 2615 
Q 1494 2509 1414 2295 
Q 1334 2081 1334 1663 
L 1334 0 
L 456 0 
L 456 4581 
L 1334 4581 
z
" transform="scale(0.015625)"/>
     <path id="Arial-BoldMT-61" d="M 1116 2306 
L 319 2450 
Q 453 2931 781 3162 
Q 1109 3394 1756 3394 
Q 2344 3394 2631 3255 
Q 2919 3116 3036 2902 
Q 3153 2688 3153 2116 
L 3144 1091 
Q 3144 653 3186 445 
Q 3228 238 3344 0 
L 2475 0 
Q 2441 88 2391 259 
Q 2369 338 2359 363 
Q 2134 144 1878 34 
Q 1622 -75 1331 -75 
Q 819 -75 523 203 
Q 228 481 228 906 
Q 228 1188 362 1408 
Q 497 1628 739 1745 
Q 981 1863 1438 1950 
Q 2053 2066 2291 2166 
L 2291 2253 
Q 2291 2506 2166 2614 
Q 2041 2722 1694 2722 
Q 1459 2722 1328 2630 
Q 1197 2538 1116 2306 
z
M 2291 1594 
Q 2122 1538 1756 1459 
Q 1391 1381 1278 1306 
Q 1106 1184 1106 997 
Q 1106 813 1243 678 
Q 1381 544 1594 544 
Q 1831 544 2047 700 
Q 2206 819 2256 991 
Q 2291 1103 2291 1419 
L 2291 1594 
z
" transform="scale(0.015625)"/>
     <path id="Arial-BoldMT-6c" d="M 459 0 
L 459 4581 
L 1338 4581 
L 1338 0 
L 459 0 
z
" transform="scale(0.015625)"/>
     <path id="Arial-BoldMT-2c" d="M 438 878 
L 1316 878 
L 1316 250 
Q 1316 -131 1250 -351 
Q 1184 -572 1001 -747 
Q 819 -922 538 -1022 
L 366 -659 
Q 631 -572 743 -419 
Q 856 -266 863 0 
L 438 0 
L 438 878 
z
" transform="scale(0.015625)"/>
     <path id="Arial-BoldMT-39" d="M 291 1059 
L 1141 1153 
Q 1172 894 1303 769 
Q 1434 644 1650 644 
Q 1922 644 2112 894 
Q 2303 1144 2356 1931 
Q 2025 1547 1528 1547 
Q 988 1547 595 1964 
Q 203 2381 203 3050 
Q 203 3747 617 4173 
Q 1031 4600 1672 4600 
Q 2369 4600 2816 4061 
Q 3263 3522 3263 2288 
Q 3263 1031 2797 475 
Q 2331 -81 1584 -81 
Q 1047 -81 715 205 
Q 384 491 291 1059 
z
M 2278 2978 
Q 2278 3403 2083 3637 
Q 1888 3872 1631 3872 
Q 1388 3872 1227 3680 
Q 1066 3488 1066 3050 
Q 1066 2606 1241 2398 
Q 1416 2191 1678 2191 
Q 1931 2191 2104 2391 
Q 2278 2591 2278 2978 
z
" transform="scale(0.015625)"/>
     <path id="Arial-BoldMT-29" d="M 216 -1347 
Q 475 -791 581 -494 
Q 688 -197 778 190 
Q 869 578 912 926 
Q 956 1275 956 1641 
Q 956 2384 797 3048 
Q 638 3713 209 4659 
L 806 4659 
Q 1278 3988 1539 3234 
Q 1800 2481 1800 1706 
Q 1800 1053 1594 306 
Q 1359 -531 822 -1347 
L 216 -1347 
z
" transform="scale(0.015625)"/>
    </defs>
    <use xlink:href="#Arial-BoldMT-50"/>
    <use xlink:href="#Arial-BoldMT-65" x="66.699219"/>
    <use xlink:href="#Arial-BoldMT-72" x="122.314453"/>
    <use xlink:href="#Arial-BoldMT-20" x="161.230469"/>
    <use xlink:href="#Arial-BoldMT-73" x="189.013672"/>
    <use xlink:href="#Arial-BoldMT-75" x="244.628906"/>
    <use xlink:href="#Arial-BoldMT-62" x="305.712891"/>
    <use xlink:href="#Arial-BoldMT-6a" x="366.796875"/>
    <use xlink:href="#Arial-BoldMT-65" x="394.580078"/>
    <use xlink:href="#Arial-BoldMT-63" x="450.195312"/>
    <use xlink:href="#Arial-BoldMT-74" x="505.810547"/>
    <use xlink:href="#Arial-BoldMT-20" x="539.111328"/>
    <use xlink:href="#Arial-BoldMT-6d" x="566.894531"/>
    <use xlink:href="#Arial-BoldMT-65" x="655.810547"/>
    <use xlink:href="#Arial-BoldMT-74" x="711.425781"/>
    <use xlink:href="#Arial-BoldMT-72" x="744.726562"/>
    <use xlink:href="#Arial-BoldMT-69" x="783.642578"/>
    <use xlink:href="#Arial-BoldMT-63" x="811.425781"/>
    <use xlink:href="#Arial-BoldMT-73" x="867.041016"/>
    <use xlink:href="#Arial-BoldMT-20" x="922.65625"/>
    <use xlink:href="#Arial-BoldMT-64" x="950.439453"/>
    <use xlink:href="#Arial-BoldMT-69" x="1011.523438"/>
    <use xlink:href="#Arial-BoldMT-66" x="1039.306641"/>
    <use xlink:href="#Arial-BoldMT-66" x="1072.607422"/>
    <use xlink:href="#Arial-BoldMT-65" x="1105.908203"/>
    <use xlink:href="#Arial-BoldMT-72" x="1161.523438"/>
    <use xlink:href="#Arial-BoldMT-65" x="1200.439453"/>
    <use xlink:href="#Arial-BoldMT-6e" x="1256.054688"/>
    <use xlink:href="#Arial-BoldMT-63" x="1317.138672"/>
    <use xlink:href="#Arial-BoldMT-65" x="1372.753906"/>
    <use xlink:href="#Arial-BoldMT-73" x="1428.369141"/>
    <use xlink:href="#Arial-BoldMT-20" x="1483.984375"/>
    <use xlink:href="#Arial-BoldMT-28" x="1511.767578"/>
    <use xlink:href="#Arial-BoldMT-38" x="1545.068359"/>
    <use xlink:href="#Arial-BoldMT-2d" x="1600.683594"/>
    <use xlink:href="#Arial-BoldMT-63" x="1633.984375"/>
    <use xlink:href="#Arial-BoldMT-68" x="1689.599609"/>
    <use xlink:href="#Arial-BoldMT-61" x="1750.683594"/>
    <use xlink:href="#Arial-BoldMT-6e" x="1806.298828"/>
    <use xlink:href="#Arial-BoldMT-6e" x="1867.382812"/>
    <use xlink:href="#Arial-BoldMT-65" x="1928.466797"/>
    <use xlink:href="#Arial-BoldMT-6c" x="1984.082031"/>
    <use xlink:href="#Arial-BoldMT-73" x="2011.865234"/>
    <use xlink:href="#Arial-BoldMT-2c" x="2067.480469"/>
    <use xlink:href="#Arial-BoldMT-20" x="2095.263672"/>
    <use xlink:href="#Arial-BoldMT-39" x="2123.046875"/>
    <use xlink:href="#Arial-BoldMT-20" x="2178.662109"/>
    <use xlink:href="#Arial-BoldMT-73" x="2206.445312"/>
    <use xlink:href="#Arial-BoldMT-75" x="2262.060547"/>
    <use xlink:href="#Arial-BoldMT-62" x="2323.144531"/>
    <use xlink:href="#Arial-BoldMT-6a" x="2384.228516"/>
    <use xlink:href="#Arial-BoldMT-65" x="2412.011719"/>
    <use xlink:href="#Arial-BoldMT-63" x="2467.626953"/>
    <use xlink:href="#Arial-BoldMT-74" x="2523.242188"/>
    <use xlink:href="#Arial-BoldMT-73" x="2556.542969"/>
    <use xlink:href="#Arial-BoldMT-29" x="2612.158203"/>
   </g>
   <!--  -->
   <g style="fill: #262626" transform="translate(580.19976 39.55275) scale(0.18 -0.18)"/>
  </g>
 </g>
 <defs>
  <clipPath id="pcce3d38b56">
   <rect x="50.3475" y="66.034324" width="524.174291" height="418.550196"/>
  </clipPath>
  <clipPath id="pdb3c9730da">
   <rect x="629.025229" y="66.034324" width="524.174291" height="418.550196"/>
  </clipPath>
 </defs>
</svg>
